PathFileType	4	(X/Y/Z)	Patient4_TMGait_0pt5_02_right_03.trc.trc
DataRate	CameraRate	NumFrames	NumMarkers	Units	OrigDataRate	OrigDataStartFrame	OrigNumFrames
76.086956521739	76.086956521739	5	33	mm	76.086956521739	36	       141
Frame#	Time	Sacral			L.Shoulder			Chest			R.Shoulder			Neck			R.ASIS			L.ASIS			R.Thigh.Superior			R.Thigh.Lateral			R.Thigh.Inferior			R.Patella			L.Thigh.Superior			L.Thigh.Lateral			L.Thigh.Inferior			L.Patella			L.Shank.Superior			L.Shank.Lateral			L.Shank.Inferior			R.Shank.Superior			R.Shank.Lateral			R.Shank.Inferior			R.Heel			R.Midfoot.Superior			R.Midfoot.Lateral			R.Toe			L.Heel			L.Midfoot.Lateral			L.Midfoot.Superior			L.Toe			L.Elbow			L.Wrist			R.Elbow			R.Wrist			
		X1	Y1	Z1	X2	Y2	Z2	X3	Y3	Z3	X4	Y4	Z4	X5	Y5	Z5	X6	Y6	Z6	X7	Y7	Z7	X8	Y8	Z8	X9	Y9	Z9	X10	Y10	Z10	X11	Y11	Z11	X12	Y12	Z12	X13	Y13	Z13	X14	Y14	Z14	X15	Y15	Z15	X16	Y16	Z16	X17	Y17	Z17	X18	Y18	Z18	X19	Y19	Z19	X20	Y20	Z20	X21	Y21	Z21	X22	Y22	Z22	X23	Y23	Z23	X24	Y24	Z24	X25	Y25	Z25	X26	Y26	Z26	X27	Y27	Z27	X28	Y28	Z28	X29	Y29	Z29	X30	Y30	Z30	X31	Y31	Z31	X32	Y32	Z32	X33	Y33	Z33	

36	4.270000000000	576.905657086978	1008.157695339688	501.849113431079	781.260352466488	1435.360062375335	344.432360661986	868.899919686933	1355.541757515454	510.036423835675	775.997651554328	1429.703051830559	680.256530766301	772.874175769657	1491.173059077122	496.926938484511	796.536440775971	933.895457911417	629.295772734352	793.800819269699	956.717539300351	354.679386972952	857.016526721293	747.943967644320	599.126401952390	784.706341183732	634.253781709146	657.198428569345	870.400474583531	588.694596013440	580.628310893970	880.421865821341	499.859893947867	587.999022339749	823.897716477546	736.165580557156	382.464698130062	732.078226802592	626.294704741001	317.459438199785	807.734525543224	538.751033503126	381.770666010741	797.745312434946	455.952218227134	382.876969937970	736.036769375215	396.865547899082	375.583858470693	605.816023891277	336.803308000442	319.048657372738	599.547548105428	212.066664130106	383.006303489512	857.712540187532	409.756641194719	595.282090581873	791.585621692803	302.429074754733	656.059874961274	841.332281454508	209.699302872208	595.828662514886	715.925450555545	42.812867220479	565.498797384950	886.394184091931	97.711980132996	600.952390801726	799.279477445060	36.456630273576	640.415823087206	1006.973956391267	46.448460470447	628.974739273164	414.440335404008	121.106726328068	412.715953826648	483.447185172920	87.562760664065	336.528090380923	582.609719119648	114.186543766182	363.552671781828	679.751939996432	33.320863618956	341.681230443165	796.861162481179	1089.782528056472	208.066535034910	1034.818486077254	990.216504735048	231.549259673822	645.288143396872	1104.200067362158	772.931267214393	647.842930681938	842.577974297483	775.577896431944	
37	4.283142857143	577.109261244343	1008.798134074110	505.585462913797	780.522103087520	1435.976426031224	346.839608631506	869.483713864741	1355.995007854927	511.701428587630	777.988433612966	1430.080648442106	682.630374262396	773.438972456532	1491.684378068282	499.511857099570	797.550675740657	934.658048644834	631.403974308782	793.245544672712	957.049851125863	356.764815322624	855.945958355811	746.919117888253	601.615993480437	782.743709287528	634.276700971571	659.317823317304	867.386185841662	587.970724154967	581.982486826010	876.682308814044	499.180098146045	588.995380034792	828.179461134838	738.585068658859	385.154750213395	740.304217313659	626.444177781661	319.729201074714	818.861127426338	540.474263504101	383.659993744927	809.804594990834	456.350803613453	384.087469308629	745.949429635266	397.502383288426	376.984737775910	613.343478018154	342.436260238532	320.833573521578	603.239314843174	217.529876425126	383.813184123832	853.459159812170	409.310641581736	596.233502831127	787.068851277819	302.202812567432	656.956594387875	835.893296053324	209.385669096592	596.134329343418	709.599717486314	42.795558944775	565.622500366079	880.135643140419	97.593872866463	601.080024940704	792.930720772142	36.465682837409	640.544467956840	1000.681390751578	46.191065190211	629.160762212545	414.868490395725	135.316155048871	413.295270946577	481.990235749410	98.222485182948	337.002031366224	582.568379199350	119.019335564167	364.064071995091	674.243225270632	32.549857791325	342.092212591172	793.129970140642	1089.207705249391	212.450981748702	1028.403426072210	982.106100462289	234.870005118986	651.863468487840	1102.990614797907	777.391643523186	663.968623615004	841.514528688336	779.361773111613	
38	4.296285714286	577.158247093642	1009.372942031821	509.240570945357	779.566516894124	1436.417684104961	348.954720346336	869.935110594997	1356.359277364948	513.063233464987	779.896258681444	1430.383885980372	684.711533788426	773.866729052892	1492.107534308280	501.791575088452	798.369397116561	935.379023973837	633.508076112773	792.646478616065	957.247501067853	358.882985054847	854.695867154526	745.883504297450	604.223583582040	780.544417230755	634.225556891357	661.485185620515	864.215884139715	587.221908572165	583.450894352135	872.751357029670	498.507910233995	590.083222021547	832.314894908110	741.138010100040	387.905768975669	748.524523262823	626.898582437912	321.850801309659	829.822579195236	542.636164878304	385.523520297151	821.839643051296	457.283072223849	385.366433803403	756.073117991623	398.548792504482	378.362387746987	621.346222339520	348.295705639748	322.573637393548	607.532286302728	223.342344921015	384.675332856507	849.056315725716	408.858822747804	597.226094226556	782.412895586358	301.941561279043	657.844435508811	830.387770095427	209.076145856426	596.457841909955	703.248133643314	42.807374693523	565.723956395953	873.857854925572	97.471464863565	601.196396603218	786.555524347452	36.472348761806	640.648663646667	994.370290999777	45.856833652378	629.320350302355	416.302046868879	149.642227461338	413.955074168449	481.520503465424	109.274845743221	337.535603162146	583.257736947230	124.349503466577	364.696161045929	669.519774869705	31.927515131057	342.466380933220	789.059432298452	1088.399530304637	216.712015610009	1021.154496400513	973.264945213871	237.726954709852	658.684161572368	1101.814080208381	781.966753244885	680.951418573219	840.886803321848	783.259895053797	
39	4.309428571429	577.051000422570	1009.901461530091	512.788219906950	778.456964931713	1436.681668479258	350.769437171100	870.261030623107	1356.641308272182	514.146937510244	781.687568849240	1430.653484010570	686.497401845927	774.179430308220	1492.460708209940	503.739737733669	798.987738204750	936.060910512917	635.646088750538	791.996873092895	957.357305028056	361.064387914974	853.358328738422	744.919937467682	606.902088108111	778.201065735829	634.121710374105	663.652058129946	861.010818347911	586.481606528756	585.016219768891	868.738823303342	497.855058614999	591.234446663904	836.189186853760	743.828401152263	390.703904038596	756.552337620095	627.725462967861	323.809836921780	840.394708352574	545.266836912813	387.346399648202	833.649876634606	458.790089339307	386.668040827981	766.238231392584	400.037373133708	379.681088029669	629.674604227750	354.243065285660	324.238665718885	612.436801801043	229.311241084472	385.553963419517	844.591552612229	408.409025232603	598.235262052907	777.677365002538	301.673659404198	658.720084119434	824.840898754403	208.773818762479	596.793026732793	696.847262649946	42.849803168851	565.814942065354	867.549989296678	97.348154367418	601.305008722338	780.132780773206	36.478282026298	640.737573613373	988.020284746815	45.458153543074	629.457043568535	418.812051519292	163.491268808845	414.688310767840	482.201470934731	120.244862987645	338.112469870453	584.837173642044	129.976488057145	365.386872488315	665.983662144001	31.558995273388	342.740012385354	784.680437832364	1087.368211545699	220.849552248221	1012.998199933433	963.704194967579	240.061083820553	665.780325938894	1100.687503221928	786.600626671722	698.727332864680	840.789822550049	787.193744380168	
40	4.322571428571	576.784988216757	1010.412827410773	516.213579493477	777.256006405025	1436.780359284104	352.291576320935	870.472626231027	1356.856129624960	514.988828513740	783.342280354894	1430.939408032955	687.998524368886	774.402614095860	1492.767554565920	505.347190805888	799.411914392417	936.707677437714	637.838222756645	791.271858654380	957.437160732381	363.317417662026	851.997721357209	744.080749652429	609.590049958071	775.776916629456	633.984536049841	665.765197581046	857.842182986380	585.771853612800	586.636747862085	864.715209431394	497.228406885148	592.400671157895	839.709700827448	746.661960631719	393.527994685262	764.224604739860	628.971166016774	325.599784955203	850.399199799994	548.373108679206	389.108068333753	845.066336588080	460.890099926188	387.938325046638	776.309539203970	401.976633804150	380.901686324235	638.204211434263	360.100524475101	325.801278410066	618.007921243860	235.194595880950	386.404105983450	840.119828499629	407.970009628373	599.226971312572	772.900990695847	301.423568378500	659.571196404877	819.268619439817	208.484879821847	597.128344836625	690.387133791128	42.919154620835	565.904904499326	861.207601699368	97.230368477602	601.408517557561	773.654852988067	36.485246508724	640.818428951854	981.621227569533	45.021731369176	629.575512966750	422.490945834639	176.208329435739	415.482421828125	484.223732797741	130.592609894220	338.706790212989	587.518813377453	135.631152353639	366.063679677740	664.108126821465	31.534840994135	342.844348097868	780.031773629068	1086.147392714491	224.867817445854	1003.857322689784	953.461054443893	241.837144144277	673.173342767469	1099.643145043774	791.231488911196	717.241698387454	841.329611275024	791.074084499485	
